Coordinates
version=1
nRows=11
nColumns=40
inDegrees=yes

Units are S.I. units (second, meters, Newtons, ...)
Angles are in degrees.

endheader
time	pelvis_tilt	pelvis_list	pelvis_rotation	pelvis_tx	pelvis_ty	pelvis_tz	hip_flexion_r	hip_adduction_r	hip_rotation_r	knee_angle_r	knee_angle_r_beta	ankle_angle_r	subtalar_angle_r	mtp_angle_r	hip_flexion_l	hip_adduction_l	hip_rotation_l	knee_angle_l	knee_angle_l_beta	ankle_angle_l	subtalar_angle_l	mtp_angle_l	lumbar_extension	lumbar_bending	lumbar_rotation	arm_flex_r	arm_add_r	arm_rot_r	elbow_flex_r	pro_sup_r	wrist_flex_r	wrist_dev_r	arm_flex_l	arm_add_l	arm_rot_l	elbow_flex_l	pro_sup_l	wrist_flex_l	wrist_dev_l
     34.58500000	     -8.06469676	     -2.68685647	     -8.15144591	      0.88527014	      0.91986720	      0.47752722	     24.26306148	      0.88692681	     -6.61129006	     21.62042980	     21.62042980	      7.16798130	      1.30482307	     -3.37267150	      7.60090619	     -8.67050453	     -6.32336662	     30.25471548	     30.25471548	     16.99354570	    -15.04708213	      1.42561144	    -11.16065535	      6.98959208	     -0.01457291	     -4.27607925	    -14.63895363	    -16.80201377	     42.00168885	     45.92019888	      0.00000000	      0.00000000	     15.75603274	    -11.25789511	     -3.79161264	     83.66128974	     47.53482693	      0.00000000	      0.00000000
     34.60257143	     -8.10042454	     -2.75580967	     -7.85693210	      0.88571768	      0.92123338	      0.48156125	     23.43182027	      1.12393315	     -7.01739857	     20.87246809	     20.87246809	      7.45974644	      1.72526755	     -3.30340858	      8.72741076	     -9.16496479	     -5.65788549	     32.74933375	     32.74933375	     15.86613263	    -15.65492863	      1.28264116	    -11.05253127	      7.07955290	     -0.08135663	     -3.05853246	    -15.07775017	    -16.95699348	     43.00976656	     45.89729910	      0.00000000	      0.00000000	     15.32734638	    -11.18398705	     -3.29262801	     83.06105692	     47.49646146	      0.00000000	      0.00000000
     34.62014286	     -8.10534172	     -2.85840446	     -7.52907011	      0.88590897	      0.92244520	      0.48538804	     22.60586363	      1.36913012	     -7.48446518	     20.16862314	     20.16862314	      7.73655342	      2.18655917	     -3.28933894	     10.01282931	     -9.64702611	     -4.82228146	     35.50339038	     35.50339038	     14.62534529	    -16.35337684	      1.21579862	    -11.02057166	      7.15353602	     -0.17278780	     -1.81369195	    -15.48917826	    -17.10988719	     44.18169634	     45.86820707	      0.00000000	      0.00000000	     14.81225494	    -11.18506167	     -2.72065828	     82.43527173	     47.45124214	      0.00000000	      0.00000000
     34.63771429	     -8.03527620	     -2.95585390	     -7.19273262	      0.88592591	      0.92355630	      0.48902913	     21.77311503	      1.60201379	     -7.89757451	     19.57827739	     19.57827739	      8.01078716	      2.51496873	     -3.30591416	     11.34734130	    -10.07437525	     -3.93543737	     38.39497436	     38.39497436	     13.31949495	    -17.05421374	      1.27098518	    -11.05645746	      7.20927946	     -0.19504337	     -0.51449938	    -15.88555758	    -17.21657944	     45.32336551	     45.83845927	      0.00000000	      0.00000000	     14.28308769	    -11.15873524	     -2.14682960	     81.75969588	     47.40325405	      0.00000000	      0.00000000
     34.65528571	     -8.06510163	     -3.10531446	     -6.72858052	      0.88569996	      0.92431272	      0.49239157	     21.04702506	      1.87641514	     -8.38369025	     18.96325255	     18.96325255	      8.27418489	      2.74113127	     -3.36274869	     12.97871240	    -10.48777127	     -2.81193276	     41.46637248	     41.46637248	     12.09037226	    -17.68113651	      1.62932159	    -10.97266582	      7.30114711	     -0.42790013	      0.57938280	    -16.20607670	    -17.26095136	     46.78221367	     45.79242778	      0.00000000	      0.00000000	     13.54546509	    -11.36742601	     -1.37249965	     80.60132597	     47.33465295	      0.00000000	      0.00000000
     34.67285714	     -7.94628923	     -3.27432701	     -6.27694799	      0.88534845	      0.92498658	      0.49556191	     20.31749361	      2.16126923	     -8.70965049	     18.61208053	     18.61208053	      8.52246611	      2.68879231	     -3.43011532	     14.52431660	    -10.84368728	     -1.70776624	     44.55272194	     44.55272194	     10.97474146	    -18.22096374	      2.19684687	    -11.08380142	      7.33931739	     -0.47705898	      1.77188186	    -16.56924280	    -17.21573669	     48.05554006	     45.75027201	      0.00000000	      0.00000000	     12.95618900	    -11.37400392	     -0.66036966	     79.41638800	     47.26909689	      0.00000000	      0.00000000
     34.69042857	     -7.83622600	     -3.31889915	     -5.78353290	      0.88480951	      0.92544521	      0.49845359	     19.70761309	      2.36074795	     -8.71421109	     18.38617698	     18.38617698	      8.68780513	      1.99474108	     -3.88117499	     16.32783856	    -10.84917994	     -0.34862549	     47.95450281	     47.95450281	     11.70087047	    -18.29154310	      7.54593450	    -11.13005124	      7.32120440	      0.33972864	      1.34237212	    -17.45771479	    -16.13998671	     51.63290384	     45.57241701	      0.00000000	      0.00000000	     13.53252005	    -11.33644502	      1.77582672	     75.69002010	     47.08943500	      0.00000000	      0.00000000
     34.70800000	     -7.69920666	     -3.44980939	     -5.23167541	      0.88416500	      0.92561519	      0.50119449	     19.19066730	      2.62318193	     -8.73466681	     18.39833047	     18.39833047	      9.04126614	      1.22326605	     -3.96936779	     18.02265764	    -10.96762228	      0.81866272	     50.92155467	     50.92155467	     11.39011475	    -18.58077093	      9.77905578	    -11.23578582	      7.31138476	      0.38267119	      2.35202083	    -17.77939650	    -16.01085119	     52.95726477	     45.53156911	      0.00000000	      0.00000000	     13.11053662	    -11.26300481	      2.60855909	     73.45348978	     47.02745156	      0.00000000	      0.00000000
     34.72557143	     -7.53002582	     -3.54928468	     -4.64101501	      0.88345731	      0.92550339	      0.50380484	     18.81054018	      2.84833556	     -8.64395226	     18.70738641	     18.70738641	      9.49757909	      0.14515771	     -3.99916237	     19.65902196	    -11.01829730	      1.86291962	     53.57051351	     53.57051351	     11.03195218	    -18.86095579	     11.27348436	    -11.35572510	      7.22165645	      0.17888440	      3.66177136	    -17.97271494	    -15.65734542	     54.01188601	     45.48990750	      0.00000000	      0.00000000	     12.51328854	    -11.23784471	      3.12321559	     71.03471802	     46.96610436	      0.00000000	      0.00000000
     34.74314286	     -7.33275476	     -3.65647853	     -4.01807446	      0.88263170	      0.92514191	      0.50622400	     18.53059022	      3.07444273	     -8.49828304	     19.22806092	     19.22806092	      9.99867591	     -1.13690822	     -3.90604227	     21.34985348	    -10.98369534	      2.88848820	     56.07207234	     56.07207234	     11.63551370	    -19.00098463	     14.68503571	    -11.51616449	      7.15208145	      0.52355775	      4.31443932	    -18.57080564	    -14.66316408	     55.33922147	     45.41864751	      0.00000000	      0.00000000	     12.54350959	    -10.78524644	      3.81361970	     67.42418508	     46.90083834	      0.00000000	      0.00000000
     34.76071429	     -7.08259047	     -3.76993354	     -3.33470447	      0.88181450	      0.92438587	      0.50851638	     18.36803057	      3.25611943	     -8.48020924	     20.07499656	     20.07499656	     10.61642030	     -2.39335404	     -4.03790017	     22.88429254	    -11.05701416	      3.59118685	     58.00906125	     58.00906125	     11.46587898	    -19.16598040	     15.10007277	    -11.77019282	      7.04342744	      0.21320432	      5.69866108	    -18.52111734	    -14.51075109	     56.33047576	     45.38637046	      0.00000000	      0.00000000	     11.62981780	    -10.87208409	      4.08490263	     65.46548989	     46.85105120	      0.00000000	      0.00000000
